<svg xmlns="http://www.w3.org/2000/svg" viewBox="0 0 800 600" style="background-color: #ffffff;">
  <g transform="translate(0, 0) scale(3)">
    <g transform="translate(40, -10)">
      <g transform="translate(50, 50) scale(0.5)">
        <path d="M0,0 L100,173.2 L200,0 L160,0 L100,104 L40,0 Z" fill="#41B883" />
        <path d="M40,0 L100,104 L160,0 Z" fill="#35495E" />
      </g>
      <g transform="translate(40, 100)">
        <rect x="0" y="0" width="120" height="80" rx="4" fill="none" stroke="#41B883" stroke-width="4" />
        <line x1="0" y1="20" x2="120" y2="20" stroke="#41B883" stroke-width="2" />
        <line x1="0" y1="40" x2="120" y2="40" stroke="#41B883" stroke-width="2" />
        <line x1="0" y1="60" x2="120" y2="60" stroke="#41B883" stroke-width="2" />
        <line x1="30" y1="0" x2="30" y2="80" stroke="#41B883" stroke-width="2" />
        <line x1="60" y1="0" x2="60" y2="80" stroke="#41B883" stroke-width="2" />
        <line x1="90" y1="0" x2="90" y2="80" stroke="#41B883" stroke-width="2" />
      </g>
      <g transform="translate(-50, 150)">
        <text x="150" y="15" font-family="Arial, sans-serif" font-size="22" font-weight="bold" text-anchor="middle" fill="
  #35495E">Vue PivotTable</text>
      </g>
    </g>
  </g>
</svg>